<?xml version="1.0" standalone="no"?>
<!DOCTYPE svg PUBLIC "-//W3C//DTD SVG 20010904//EN"
 "http://www.w3.org/TR/2001/REC-SVG-20010904/DTD/svg10.dtd">
<svg version="1.0" xmlns="http://www.w3.org/2000/svg"
 width="600.000000pt" height="600.000000pt" viewBox="0 0 600.000000 600.000000"
 preserveAspectRatio="xMidYMid meet">
<g transform="translate(0.000000,600.000000) scale(0.100000,-0.100000)"
fill="#000000" stroke="none">
<path d="M2298 5573 c7 -3 16 -2 19 1 4 3 -2 6 -13 5 -11 0 -14 -3 -6 -6z"/>
<path d="M2285 5521 c-11 -5 -29 -19 -40 -31 -19 -21 -20 -36 -20 -305 l0
-283 23 -25 c30 -32 65 -41 106 -27 62 20 66 38 66 328 0 158 -4 271 -11 290
-6 19 -23 36 -44 46 -36 18 -50 19 -80 7z m45 -22 c0 -6 6 -9 14 -6 8 3 22 0
33 -8 17 -12 18 -33 18 -293 l0 -280 -25 -26 c-15 -17 -30 -24 -40 -20 -8 3
-21 9 -29 12 -10 4 -12 1 -6 -9 4 -8 -5 -2 -21 14 l-29 27 -4 267 c-3 234 -1
267 12 275 9 5 14 15 11 23 -6 14 6 19 35 16 7 -2 10 2 6 8 -3 6 1 11 9 11 9
0 16 -5 16 -11z"/>
<path d="M968 5013 c7 -3 16 -2 19 1 4 3 -2 6 -13 5 -11 0 -14 -3 -6 -6z"/>
<path d="M932 4960 c-38 -23 -55 -62 -47 -101 8 -36 358 -394 400 -409 82 -31
162 59 122 136 -9 16 -96 109 -194 206 -198 196 -217 208 -281 168z m266 -184
c95 -94 178 -179 184 -189 13 -25 19 -77 8 -77 -5 0 -12 -9 -15 -20 -4 -11
-10 -18 -15 -15 -5 3 -12 0 -15 -5 -4 -7 -19 -8 -38 -4 -23 5 -76 50 -189 162
-86 86 -155 160 -152 163 2 4 -1 11 -7 15 -8 5 -9 3 -4 -7 4 -8 -1 -5 -12 6
-11 11 -18 27 -15 36 2 9 -1 20 -7 23 -7 5 -8 1 -4 -10 4 -12 3 -15 -5 -10 -6
4 -11 21 -9 39 3 41 56 80 96 71 15 -4 95 -75 199 -178z"/>
<path d="M914 4909 c-3 -6 -2 -15 3 -20 5 -5 9 -1 10 11 2 22 -2 25 -13 9z"/>
<path d="M940 4865 c0 -5 5 -17 10 -25 5 -8 10 -10 10 -5 0 6 -5 17 -10 25 -5
8 -10 11 -10 5z"/>
<path d="M1366 4562 c-3 -5 1 -9 9 -9 8 0 12 4 9 9 -3 4 -7 8 -9 8 -2 0 -6 -4
-9 -8z"/>
<path d="M3620 4974 c-23 -9 -370 -356 -386 -386 -19 -36 -18 -64 3 -99 20
-33 69 -53 108 -43 26 6 358 328 397 384 26 36 22 75 -9 110 -28 31 -80 46
-113 34z m64 -23 c4 -1 5 -8 2 -17 -5 -14 -4 -15 8 -5 19 16 47 -12 42 -42 -3
-12 -5 -28 -5 -35 -1 -7 -6 -10 -13 -6 -8 5 -9 2 -5 -9 7 -18 -19 -51 -33 -42
-5 3 -12 0 -16 -6 -5 -8 -3 -9 7 -4 8 5 -58 -63 -146 -151 -157 -156 -161
-159 -205 -160 -48 -1 -69 14 -70 51 0 17 2 17 10 5 7 -10 10 -11 10 -2 0 7
-6 15 -14 18 -8 3 -12 13 -9 23 5 19 80 98 88 94 3 -2 5 0 5 5 1 11 62 71 70
69 5 -1 7 1 7 5 -3 11 65 78 74 72 4 -2 11 1 15 7 5 8 3 9 -7 4 -26 -16 66 77
104 105 20 16 45 27 55 25 9 -2 21 -4 26 -4z"/>
<path d="M3710 4910 c0 -5 5 -10 11 -10 5 0 7 5 4 10 -3 6 -8 10 -11 10 -2 0
-4 -4 -4 -10z"/>
<path d="M3696 4887 c3 -10 9 -15 12 -12 3 3 0 11 -7 18 -10 9 -11 8 -5 -6z"/>
<path d="M1010 4646 c7 -7 13 -7 20 0 6 6 3 10 -10 10 -13 0 -16 -4 -10 -10z"/>
<path d="M2160 4616 c-47 -7 -118 -22 -159 -35 -105 -32 -263 -112 -329 -166
-9 -8 -43 -35 -74 -60 -121 -99 -251 -297 -307 -470 -42 -131 -52 -177 -58
-290 -23 -398 188 -787 541 -999 l58 -35 55 41 c98 72 218 116 338 123 l57 3
34 104 c109 326 363 589 694 718 85 34 258 70 333 70 l68 0 -7 48 c-33 235
-117 418 -274 601 -117 136 -288 246 -473 305 -171 54 -321 67 -497 42z m244
-18 c-3 -5 14 -5 37 -2 32 5 40 4 34 -5 -6 -10 -3 -11 11 -3 14 7 25 6 39 -4
10 -8 24 -14 29 -14 6 0 4 5 -4 10 -9 6 -10 10 -3 10 6 0 14 -4 17 -9 3 -5 27
-12 53 -16 26 -4 60 -16 75 -27 16 -10 28 -14 28 -8 0 8 6 8 20 0 11 -6 17
-16 14 -22 -4 -6 -3 -8 4 -4 11 6 92 -34 124 -61 9 -8 22 -12 29 -7 7 4 10 3
6 -3 -4 -6 7 -16 23 -23 35 -14 106 -77 103 -90 -2 -5 4 -7 12 -4 11 5 13 2 8
-12 -4 -10 -2 -15 4 -11 5 3 25 -10 44 -30 19 -21 25 -31 15 -23 -18 14 -18
14 -5 -7 7 -12 15 -20 17 -18 6 5 44 -32 42 -40 -1 -4 2 -11 7 -14 20 -14 42
-61 37 -78 -4 -14 -3 -15 4 -4 8 11 11 11 18 0 24 -40 54 -106 54 -121 0 -10
4 -18 10 -18 5 0 12 -16 16 -35 3 -19 10 -35 16 -35 5 0 7 -3 4 -8 -2 -4 2
-32 10 -62 8 -30 15 -69 16 -87 1 -18 5 -30 9 -28 4 3 6 -3 4 -12 -2 -10 -4
-21 -4 -24 -1 -4 -42 -10 -91 -13 -50 -4 -88 -11 -86 -15 3 -4 -5 -7 -17 -6
-12 1 -39 -4 -59 -11 -21 -7 -38 -11 -38 -7 0 3 -7 0 -15 -7 -8 -6 -19 -9 -24
-6 -5 4 -12 2 -16 -4 -3 -5 -13 -10 -20 -10 -18 0 -185 -80 -203 -98 -8 -7
-28 -20 -45 -28 -33 -17 -120 -83 -125 -96 -2 -4 -19 -17 -38 -28 -19 -12 -32
-25 -29 -30 6 -9 -29 -42 -38 -35 -4 3 -5 2 -2 -2 3 -4 -8 -20 -24 -37 -37
-38 -121 -165 -121 -183 0 -7 -4 -13 -9 -13 -10 0 -50 -87 -86 -192 -15 -43
-30 -78 -34 -79 -3 0 -24 -2 -46 -3 -22 -1 -47 -5 -55 -8 -8 -4 -40 -12 -70
-18 -30 -6 -65 -18 -78 -26 -12 -8 -28 -12 -34 -8 -7 4 -8 3 -4 -4 4 -7 1 -12
-9 -12 -21 0 -105 -57 -105 -72 0 -6 -7 -5 -17 3 -9 8 -14 9 -10 3 9 -16 -26
-12 -36 4 -4 6 -14 12 -21 12 -16 0 -92 59 -89 70 1 4 -5 7 -15 6 -9 0 -16 4
-15 11 2 7 -3 10 -10 7 -13 -5 -70 47 -68 63 1 4 -3 8 -8 8 -6 0 -24 15 -42
33 -17 17 -26 32 -19 32 8 0 11 3 7 6 -3 3 -8 5 -12 4 -9 -2 -43 39 -50 61 -4
11 -11 19 -16 19 -5 0 -9 7 -9 16 0 9 -5 12 -12 8 -6 -4 -8 -3 -4 4 9 14 -28
74 -40 64 -5 -4 -6 -3 -2 1 4 5 -2 25 -12 45 -26 50 -44 95 -42 105 1 4 -4 20
-12 35 -12 24 -33 100 -43 157 -12 64 -14 239 -3 286 6 30 14 74 16 98 3 24 9
51 14 61 5 10 6 21 2 25 -4 5 -1 5 6 1 6 -4 12 -2 12 4 0 6 4 8 10 5 6 -3 7 1
3 10 -5 13 -7 14 -14 3 -19 -29 -7 10 16 56 14 27 25 58 25 68 0 10 4 18 8 18
5 0 14 16 22 35 7 19 18 31 23 28 6 -4 8 0 4 9 -9 24 4 30 20 10 13 -15 13
-15 3 6 -10 20 -7 29 16 60 15 20 31 39 34 42 4 3 12 15 19 28 7 12 16 20 22
17 5 -4 8 -3 7 2 -2 5 20 31 47 58 53 52 95 88 95 80 0 -2 15 9 32 26 18 16
37 29 43 29 5 0 4 -4 -3 -9 -11 -7 -10 -9 3 -14 9 -4 13 -3 10 3 -7 12 27 43
73 66 20 10 44 25 54 32 9 8 27 15 40 17 12 2 45 11 72 19 27 9 63 16 80 17
26 0 28 2 11 9 -16 7 -12 9 20 10 79 2 136 8 142 14 10 10 163 4 157 -6z"/>
<path d="M3311 3894 c0 -11 3 -14 6 -6 3 7 2 16 -1 19 -3 4 -6 -2 -5 -13z"/>
<path d="M1431 2994 c0 -11 3 -14 6 -6 3 7 2 16 -1 19 -3 4 -6 -2 -5 -13z"/>
<path d="M1460 2930 c0 -5 5 -10 11 -10 5 0 7 5 4 10 -3 6 -8 10 -11 10 -2 0
-4 -4 -4 -10z"/>
<path d="M1200 4431 c0 -6 4 -13 10 -16 6 -3 7 1 4 9 -7 18 -14 21 -14 7z"/>
<path d="M3416 3837 c3 -10 9 -15 12 -12 3 3 0 11 -7 18 -10 9 -11 8 -5 -6z"/>
<path d="M382 3647 c-46 -49 -37 -128 17 -160 25 -15 63 -17 294 -17 l265 0
30 25 c16 13 32 38 36 55 7 38 -15 94 -42 109 -14 7 -119 11 -300 11 -278 0
-279 0 -300 -23z m428 3 c109 9 198 -14 186 -46 -3 -9 -1 -24 4 -35 7 -13 7
-19 0 -19 -5 0 -10 -7 -10 -15 0 -8 -11 -22 -24 -30 -20 -13 -61 -16 -268 -14
-134 0 -256 3 -271 6 -17 3 -33 16 -42 33 -15 29 -12 87 5 104 7 7 73 12 168
14 86 1 164 4 172 7 8 2 26 1 40 -1 14 -3 32 -4 40 -4z"/>
<path d="M966 3612 c-3 -5 1 -9 9 -9 8 0 15 4 15 9 0 4 -4 8 -9 8 -6 0 -12 -4
-15 -8z"/>
<path d="M3642 3641 c-29 -30 -29 -30 -124 -24 -52 3 -98 2 -101 -3 -3 -5 23
-9 56 -10 208 -2 306 -23 462 -100 66 -32 76 -34 173 -34 142 0 182 22 182
104 0 23 -9 45 -26 65 l-26 31 -283 0 -283 0 -30 -29z m542 8 c-2 -3 11 -6 27
-6 32 0 45 -12 55 -51 8 -28 -13 -80 -35 -86 -42 -12 -114 -16 -125 -7 -8 7
-24 7 -44 1 -34 -9 -69 -2 -120 24 -18 9 -32 13 -32 9 0 -5 -4 -3 -8 3 -12 17
-102 51 -169 64 -35 7 -63 17 -63 22 0 5 -6 6 -12 2 -10 -5 -10 -3 0 7 10 11
61 15 220 19 266 6 311 6 306 -1z"/>
<path d="M4228 3622 c8 -5 13 -12 13 -16 0 -3 4 -16 9 -28 5 -15 9 -17 9 -7 1
9 -2 19 -6 23 -5 4 -8 13 -8 19 0 5 -7 12 -15 14 -12 4 -12 3 -2 -5z"/>
<path d="M3340 3529 c-41 -5 -91 -10 -111 -11 -21 -2 -35 -6 -33 -10 2 -3 -25
-10 -61 -13 -36 -4 -62 -11 -59 -16 3 -5 -2 -10 -10 -10 -26 -2 -29 -3 -71
-22 -62 -27 -137 -68 -164 -89 -14 -10 -33 -16 -45 -13 -12 3 -15 2 -8 -1 9
-4 5 -13 -14 -30 -22 -21 -28 -23 -42 -12 -15 11 -15 11 -4 -4 8 -10 9 -19 3
-22 -5 -3 -11 -1 -13 5 -2 7 -9 5 -17 -5 -12 -14 -11 -16 5 -10 18 7 18 7 0
-15 -11 -12 -25 -20 -32 -17 -9 3 -11 -1 -7 -11 5 -12 3 -14 -8 -8 -8 4 -11 5
-8 1 4 -4 -3 -17 -15 -29 -48 -51 -95 -112 -116 -153 -12 -26 -26 -41 -32 -38
-6 4 -8 3 -5 -3 3 -5 -12 -45 -34 -88 -21 -43 -39 -85 -39 -93 0 -7 -4 -11 -9
-7 -5 3 -13 0 -17 -6 -4 -8 -3 -9 4 -5 15 9 15 -15 0 -51 -6 -15 -10 -32 -9
-37 1 -4 -3 -22 -9 -40 l-10 -31 -77 -1 c-97 -2 -202 -27 -269 -64 -29 -16
-55 -26 -59 -22 -4 4 -5 3 -3 -3 1 -5 -1 -12 -7 -15 -5 -2 -30 -27 -55 -54
-25 -27 -53 -58 -62 -68 -10 -10 -18 -25 -18 -34 0 -8 -4 -13 -9 -9 -6 3 -17
-22 -27 -55 -9 -33 -21 -60 -27 -60 -6 0 -7 -3 -4 -6 3 -4 2 -14 -3 -24 -5 -9
-10 -53 -11 -98 l-2 -82 -45 -25 c-24 -14 -49 -22 -55 -18 -5 3 -7 1 -3 -5 3
-6 -2 -13 -12 -16 -10 -4 -31 -20 -47 -36 -26 -27 -29 -28 -42 -12 -13 15 -13
14 -3 -6 7 -13 9 -26 6 -30 -3 -3 -6 -1 -6 4 0 9 -18 -19 -42 -66 -7 -14 -16
-27 -20 -30 -12 -9 -40 -81 -54 -140 -8 -36 -11 -89 -8 -150 3 -52 6 -107 6
-122 1 -15 5 -25 9 -22 5 3 9 1 9 -5 0 -5 5 -22 12 -38 7 -15 12 -35 13 -43 0
-8 6 -14 13 -12 7 1 12 -7 12 -19 0 -12 4 -18 11 -13 7 4 10 1 7 -7 -3 -8 -12
-12 -19 -11 -8 2 -10 0 -6 -5 5 -4 12 -8 17 -8 4 0 19 -12 33 -27 14 -15 28
-24 33 -20 4 4 4 -1 1 -10 -4 -13 -2 -15 10 -11 9 4 14 2 10 -3 -3 -5 8 -16
24 -23 16 -7 27 -16 24 -21 -3 -4 3 -14 12 -21 14 -12 16 -12 9 0 -6 9 -5 12
5 9 8 -3 13 -10 12 -16 -2 -7 4 -9 14 -5 12 5 14 3 8 -8 -4 -8 -5 -11 0 -7 4
4 22 -1 39 -11 17 -11 60 -27 95 -36 58 -15 202 -16 1496 -18 788 -1 1431 1
1429 4 -2 4 22 10 54 14 31 4 71 13 87 20 17 7 46 18 65 25 77 28 124 53 182
96 99 73 241 226 231 250 -3 8 -1 14 5 14 14 0 76 134 92 198 6 28 15 54 19
56 9 6 16 112 15 236 -1 102 -29 245 -55 276 -5 6 -6 20 -2 29 4 12 3 16 -4
12 -18 -12 -23 22 -5 33 16 11 16 11 0 6 -13 -4 -25 10 -50 52 -70 123 -231
275 -348 329 -25 11 -60 28 -79 37 -19 9 -41 16 -51 16 -9 0 -20 4 -25 9 -24
23 -269 41 -350 25 l-33 -6 -27 84 c-15 45 -44 116 -66 157 -21 40 -36 78 -33
83 3 4 1 7 -4 6 -9 -3 -72 74 -72 88 0 3 -12 15 -26 26 -14 12 -23 27 -20 35
3 8 2 11 -4 8 -5 -3 -32 17 -61 45 -28 27 -55 50 -59 50 -5 0 -10 4 -12 9 -5
15 -170 121 -189 121 -10 0 -24 6 -31 13 -16 14 -72 37 -110 44 -15 3 -26 9
-23 13 3 5 -5 6 -17 2 -14 -3 -19 -1 -14 6 4 8 2 10 -8 6 -8 -3 -31 0 -53 6
-21 6 -65 13 -98 16 -33 2 -76 6 -95 8 -19 1 -69 -1 -110 -5z m306 -33 c126
-31 276 -95 369 -159 189 -130 339 -328 415 -547 12 -36 23 -72 24 -80 2 -11
14 -13 52 -10 27 3 92 4 144 3 360 -6 692 -272 785 -628 21 -84 36 -221 29
-280 -44 -391 -279 -676 -642 -777 l-77 -22 -1389 -3 c-860 -3 -1422 0 -1475
6 -86 10 -172 38 -223 73 -16 11 -33 16 -38 13 -6 -4 -9 -3 -8 2 4 11 -114
128 -125 125 -5 -1 -6 2 -2 8 9 15 -23 62 -37 54 -7 -4 -8 -3 -4 4 4 7 -4 42
-17 79 -14 38 -28 102 -32 144 -18 190 104 411 274 495 l58 29 5 85 c4 55 15
110 31 154 14 39 23 75 20 80 -3 6 -3 8 2 4 5 -5 23 14 41 40 100 149 284 240
465 230 l76 -5 12 61 c34 165 130 357 240 481 58 65 184 170 259 214 113 68
269 122 407 141 82 12 287 4 361 -14z"/>
<path d="M5294 1428 c-4 -5 -3 -12 0 -15 3 -4 6 -1 6 6 0 7 4 10 9 6 5 -3 12
-2 15 3 3 5 -2 9 -10 9 -8 0 -17 -4 -20 -9z"/>
<path d="M1496 1267 c3 -10 9 -15 12 -12 3 3 0 11 -7 18 -10 9 -11 8 -5 -6z"/>
<path d="M4023 3436 c15 -14 36 -27 47 -31 13 -4 19 -12 16 -20 -3 -9 0 -12 8
-9 7 3 32 -14 57 -36 24 -23 39 -39 32 -36 -6 4 -14 2 -18 -3 -3 -6 5 -8 19
-5 17 3 29 -2 39 -16 7 -11 17 -17 22 -12 4 4 5 -1 2 -11 -5 -12 -3 -16 5 -11
7 5 9 2 5 -9 -4 -11 -2 -14 9 -10 7 3 14 1 14 -3 0 -5 20 -31 45 -59 24 -27
45 -55 45 -61 0 -6 7 -17 15 -24 10 -8 13 -23 10 -44 -4 -22 -3 -27 4 -16 5 8
7 18 4 24 -3 5 -1 6 5 2 7 -4 12 -14 12 -22 0 -8 5 -14 10 -14 7 0 6 -8 -1
-22 -12 -22 -11 -22 7 -8 10 8 16 10 12 6 -4 -5 -3 -15 3 -23 6 -7 8 -13 4
-13 -5 0 0 -9 9 -19 10 -11 15 -25 10 -32 -4 -7 -3 -10 4 -5 13 8 36 -59 26
-75 -4 -7 -3 -9 3 -6 6 4 13 0 16 -7 5 -11 21 -14 69 -11 74 4 186 -11 207
-28 12 -10 13 -9 7 1 -6 10 -1 11 21 6 15 -4 36 -11 46 -16 10 -5 21 -7 24 -5
6 7 88 -28 122 -52 26 -19 32 -21 52 -21 5 0 7 -4 4 -10 -6 -9 -2 -11 35 -14
8 -1 14 -7 13 -14 -2 -7 0 -11 5 -10 33 11 270 -228 257 -259 -2 -8 -1 -11 5
-8 11 7 32 -29 22 -40 -4 -5 -1 -5 6 -1 11 6 14 0 11 -20 0 -4 4 -10 9 -13 13
-8 60 -103 66 -132 3 -13 12 -49 20 -79 16 -64 15 -54 22 -200 6 -121 -1 -177
-36 -299 -25 -89 -90 -232 -102 -225 -5 3 -8 2 -7 -3 4 -22 -2 -25 -17 -7 -14
18 -15 18 -4 -4 9 -18 8 -26 -5 -38 -8 -8 -15 -20 -15 -25 0 -6 -4 -7 -10 -4
-6 4 -7 -1 -3 -11 5 -13 3 -16 -10 -11 -12 4 -14 2 -10 -10 5 -12 2 -15 -10
-10 -10 4 -14 2 -11 -7 7 -17 -83 -99 -99 -90 -6 4 -9 3 -4 -1 7 -9 -62 -79
-70 -71 -3 2 -25 -11 -50 -30 -24 -19 -50 -34 -56 -34 -7 0 -36 -11 -66 -25
-29 -14 -66 -27 -82 -30 -15 -3 -39 -9 -52 -14 -14 -6 -27 -8 -29 -5 -3 2 -24
-3 -48 -11 -39 -14 -41 -14 -29 2 13 15 12 15 -11 2 -21 -12 -234 -14 -1425
-12 -1590 2 -1457 1 -1450 12 3 5 -4 7 -15 4 -23 -6 -67 8 -173 57 -27 13 -44
26 -40 32 3 6 1 8 -4 5 -12 -8 -96 50 -89 61 3 5 1 14 -5 22 -6 11 -9 12 -9 2
0 -7 -5 -10 -10 -7 -6 4 -7 11 -4 17 4 6 2 8 -4 5 -5 -4 -22 7 -36 24 -27 31
-35 56 -14 43 7 -4 8 -3 4 4 -4 6 -13 9 -21 5 -8 -3 -15 0 -15 7 0 7 -10 29
-22 49 -12 19 -24 40 -25 46 -1 5 -10 35 -19 65 -18 60 -35 180 -27 193 2 4 5
29 5 54 0 31 3 42 9 32 6 -10 8 -5 8 16 -1 35 4 62 14 71 4 4 7 17 7 29 0 12
9 34 21 49 11 15 22 34 24 44 1 9 8 16 13 15 6 -2 9 4 6 12 -4 10 0 13 14 10
15 -3 19 1 15 16 -3 11 0 19 8 19 7 0 10 3 6 6 -11 11 44 63 62 57 13 -4 14
-3 2 5 -12 9 -10 12 12 17 14 4 25 11 24 15 -3 13 83 71 94 64 8 -4 8 -1 1 13
-6 11 -7 36 -2 63 5 25 11 61 14 81 6 43 30 91 40 82 4 -4 4 0 1 9 -3 8 1 22
9 31 9 9 16 21 16 27 0 6 4 8 10 5 6 -4 7 1 3 11 -5 13 -3 15 7 9 9 -5 11 -4
6 4 -8 13 30 66 47 66 7 1 11 7 9 15 -2 8 4 20 14 27 10 7 14 16 11 20 -14 14
-103 -101 -142 -183 -42 -88 -55 -131 -62 -206 -6 -67 -7 -70 -42 -88 -87 -46
-191 -164 -241 -273 -112 -249 -62 -515 135 -713 68 -68 97 -89 176 -127 52
-25 118 -50 147 -56 37 -8 493 -11 1478 -11 1550 0 1485 -2 1646 55 142 51
234 110 347 224 101 102 102 103 152 189 93 158 132 307 133 502 0 117 -4 148
-27 234 -117 427 -485 716 -912 716 l-92 0 -23 63 c-65 180 -211 379 -356 487
-28 21 -58 45 -66 54 -9 8 -18 12 -22 9 -3 -4 -6 -2 -6 4 0 6 -14 16 -31 22
l-32 11 26 -24z"/>
<path d="M4280 3450 c8 -5 20 -10 25 -10 6 0 3 5 -5 10 -8 5 -19 10 -25 10 -5
0 -3 -5 5 -10z"/>
<path d="M2775 3400 c-3 -6 1 -7 9 -4 18 7 21 14 7 14 -6 0 -13 -4 -16 -10z"/>
<path d="M1275 2680 c-11 -4 -102 -91 -201 -192 -135 -136 -184 -191 -189
-215 -12 -60 34 -112 100 -113 38 0 46 7 239 199 l199 199 -6 39 c-11 69 -80
110 -142 83z m83 -27 c13 -3 22 -13 22 -24 0 -10 4 -20 9 -23 4 -3 6 -17 4
-31 -3 -14 -10 -22 -16 -18 -5 3 -7 1 -4 -4 4 -6 -52 -71 -125 -144 -72 -74
-129 -126 -125 -116 4 11 3 16 -3 12 -6 -3 -10 -12 -10 -19 0 -19 -72 -93 -98
-101 -15 -4 -32 -1 -49 10 -14 9 -22 12 -18 5 5 -8 3 -11 -6 -8 -8 3 -13 16
-11 29 2 19 0 21 -8 9 -5 -8 -10 -13 -11 -10 0 3 -2 15 -5 28 -5 29 12 62 31
62 8 0 15 4 15 9 0 5 9 13 21 16 17 6 18 9 7 23 -11 13 -10 15 10 10 13 -4 20
-2 16 4 -8 12 26 49 38 42 4 -3 8 -2 7 3 -4 24 3 35 20 30 12 -3 18 1 17 11 0
8 5 17 13 20 9 3 11 0 6 -9 -5 -8 -4 -11 1 -6 5 5 9 12 9 15 2 18 17 52 24 52
4 0 40 32 79 71 60 59 77 70 95 64 12 -4 32 -9 45 -12z"/>
<path d="M1279 2463 c-13 -17 -13 -17 6 -3 11 8 22 16 24 17 2 2 0 3 -6 3 -6
0 -17 -8 -24 -17z"/>
<path d="M1685 2580 c-3 -6 1 -7 9 -4 18 7 21 14 7 14 -6 0 -13 -4 -16 -10z"/>
<path d="M1329 2413 c-13 -16 -12 -17 4 -4 9 7 17 15 17 17 0 8 -8 3 -21 -13z"/>
<path d="M5336 2367 c3 -10 9 -15 12 -12 3 3 0 11 -7 18 -10 9 -11 8 -5 -6z"/>
<path d="M5406 1463 c-6 -14 -5 -15 5 -6 7 7 10 15 7 18 -3 3 -9 -2 -12 -12z"/>
<path d="M5284 1260 c0 -13 4 -16 10 -10 7 7 7 13 0 20 -6 6 -10 3 -10 -10z"/>
<path d="M5315 1160 c-3 -5 -1 -10 4 -10 6 0 11 5 11 10 0 6 -2 10 -4 10 -3 0
-8 -4 -11 -10z"/>
</g>
</svg>
