<svg version="1.0" xmlns="http://www.w3.org/2000/svg" width="600.000000pt" height="600.000000pt" viewBox="0 0 600.000000 600.000000" preserveAspectRatio="xMidYMid meet" style="width: 300px; height: auto;"> <g transform="translate(0.000000,600.000000) scale(0.100000,-0.100000)" fill="#000000" stroke="none" class="">  <path d="M2305 5499 c4 -6 1 -10 -6 -8 -29 3 -41 -2 -35 -16 3 -8 -2 -18 -11 -23 -13 -8 -15 -41 -12 -275 l4 -267 29 -27 c16 -16 25 -22 21 -14 -6 10 -4 13 6 9 8 -3 21 -9 29 -12 10 -4 25 3 40 20 l25 26 0 280 c0 260 -1 281 -18 293 -11 8 -25 11 -33 8 -8 -3 -14 0 -14 6 0 6 -7 11 -16 11 -8 0 -12 -5 -9 -11z"></path> <path d="M939 4937 c-25 -16 -34 -31 -36 -54 -2 -18 3 -35 9 -39 8 -5 9 -2 5 10 -4 11 -3 15 4 10 6 -3 9 -14 7 -23 -3 -9 4 -25 15 -36 11 -11 16 -14 12 -6 -5 10 -4 12 4 7 6 -4 9 -11 7 -15 -3 -3 66 -77 152 -163 113 -112 166 -157 189 -162 19 -4 34 -3 38 4 3 5 10 8 15 5 5 -3 11 4 15 15 3 11 10 20 15 20 11 0 5 52 -8 77 -22 39 -358 361 -383 367 -19 4 -37 -1 -60 -17z m-12 -37 c-1 -12 -5 -16 -10 -11 -5 5 -6 14 -3 20 11 16 15 13 13 -9z m33 -65 c0 -5 -5 -3 -10 5 -5 8 -10 20 -10 25 0 6 5 3 10 -5 5 -8 10 -19 10 -25z m424 -273 c3 -5 -1 -9 -9 -9 -8 0 -12 4 -9 9 3 4 7 8 9 8 2 0 6 -4 9 -8z"></path> <path d="M3603 4930 c-38 -28 -130 -121 -104 -105 10 5 12 4 7 -4 -4 -6 -11 -9 -15 -7 -9 6 -77 -61 -74 -72 0 -4 -2 -6 -7 -5 -8 2 -69 -58 -70 -69 0 -5 -2 -7 -5 -5 -8 4 -83 -75 -88 -94 -3 -10 1 -20 9 -23 8 -3 14 -11 14 -18 0 -9 -3 -8 -10 2 -8 12 -10 12 -10 -5 1 -37 22 -52 70 -51 44 1 48 4 205 160 88 88 154 156 146 151 -10 -5 -12 -4 -7 4 4 6 11 9 16 6 14 -9 40 24 33 42 -4 11 -3 14 5 9 7 -4 12 -1 13 6 0 7 2 23 5 35 5 30 -23 58 -42 42 -12 -10 -13 -9 -8 5 3 9 2 16 -2 17 -5 0 -17 2 -26 4 -10 2 -35 -9 -55 -25z m122 -20 c3 -5 1 -10 -4 -10 -6 0 -11 5 -11 10 0 6 2 10 4 10 3 0 8 -4 11 -10z m-17 -35 c-3 -3 -9 2 -12 12 -6 14 -5 15 5 6 7 -7 10 -15 7 -18z"></path> <path d="M2247 4604 c-6 -6 -63 -12 -142 -14 -32 -1 -36 -3 -20 -10 17 -7 15 -9 -11 -9 -17 -1 -53 -8 -80 -17 -27 -8 -60 -17 -72 -19 -13 -2 -31 -9 -40 -17 -10 -7 -34 -22 -54 -32 -46 -23 -80 -54 -73 -66 3 -6 -1 -7 -10 -3 -13 5 -14 7 -3 14 7 5 8 9 3 9 -6 0 -25 -13 -43 -29 -17 -17 -32 -28 -32 -26 0 8 -42 -28 -95 -80 -27 -27 -49 -53 -47 -58 1 -5 -2 -6 -7 -2 -6 3 -15 -5 -22 -17 -7 -13 -15 -25 -19 -28 -3 -3 -19 -22 -34 -42 -23 -31 -26 -40 -16 -60 10 -21 10 -21 -3 -6 -16 20 -29 14 -20 -10 4 -9 2 -13 -4 -9 -5 3 -16 -9 -23 -28 -8 -19 -17 -35 -22 -35 -4 0 -8 -8 -8 -18 0 -10 -11 -41 -25 -68 -23 -46 -35 -85 -16 -56 7 11 9 10 14 -3 4 -9 3 -13 -3 -10 -6 3 -10 1 -10 -5 0 -6 -6 -8 -12 -4 -7 4 -10 4 -6 -1 4 -4 3 -15 -2 -25 -5 -10 -11 -37 -14 -61 -2 -24 -10 -68 -16 -98 -11 -47 -9 -222 3 -286 10 -57 31 -133 43 -157 8 -15 13 -31 12 -35 -2 -10 16 -55 42 -105 10 -20 16 -40 12 -45 -4 -4 -3 -5 2 -1 12 10 49 -50 40 -64 -4 -7 -2 -8 4 -4 7 4 12 1 12 -8 0 -9 4 -16 9 -16 5 0 12 -8 16 -19 7 -22 41 -63 50 -61 4 1 9 -1 12 -4 4 -3 1 -6 -7 -6 -7 0 2 -15 19 -32 18 -18 36 -33 42 -33 5 0 9 -4 8 -8 -2 -16 55 -68 68 -63 7 3 12 0 10 -7 -1 -7 6 -11 15 -11 10 1 16 -2 15 -6 -3 -11 73 -70 89 -70 7 0 17 -6 21 -12 10 -16 45 -20 36 -4 -4 6 1 5 10 -3 10 -8 17 -9 17 -3 0 15 84 72 105 72 10 0 13 5 9 12 -4 7 -3 8 4 4 6 -4 22 0 34 8 13 8 48 20 78 26 30 6 62 14 70 18 8 3 33 7 55 8 22 1 43 3 46 3 4 1 19 36 34 79 36 105 76 192 86 192 5 0 9 6 9 13 0 18 84 145 121 183 16 17 27 33 24 37 -3 4 -2 5 2 2 9 -7 44 26 38 35 -3 5 10 18 29 30 19 11 36 24 38 28 5 13 92 79 125 96 17 8 37 21 45 28 18 18 185 98 203 98 7 0 17 5 20 10 4 6 11 8 16 4 5 -3 16 0 24 6 8 7 15 10 15 7 0 -4 17 0 38 7 20 7 47 12 59 11 12 -1 20 2 17 6 -2 4 36 11 86 15 49 3 90 9 91 13 0 3 2 14 4 24 2 9 0 15 -4 12 -4 -2 -8 10 -9 28 -1 18 -8 57 -16 87 -8 30 -12 58 -10 62 3 5 1 8 -4 8 -6 0 -13 16 -16 35 -4 19 -11 35 -16 35 -6 0 -10 8 -10 18 0 15 -30 81 -54 121 -7 11 -10 11 -18 0 -7 -11 -8 -10 -4 4 5 17 -17 64 -37 78 -5 3 -8 10 -7 14 2 8 -36 45 -42 40 -2 -2 -10 6 -17 18 -13 21 -13 21 5 7 10 -8 4 2 -15 23 -19 20 -39 33 -44 30 -6 -4 -8 1 -4 11 5 14 3 17 -8 12 -8 -3 -14 -1 -12 4 3 13 -68 76 -103 90 -16 7 -27 17 -23 23 4 6 1 7 -6 3 -7 -5 -20 -1 -29 7 -32 27 -113 67 -124 61 -7 -4 -8 -2 -4 4 3 6 -3 16 -14 22 -14 8 -20 8 -20 0 0 -6 -12 -2 -28 8 -15 11 -49 23 -75 27 -26 4 -50 11 -53 16 -3 5 -11 9 -17 9 -7 0 -6 -4 3 -10 8 -5 10 -10 4 -10 -5 0 -19 6 -29 14 -14 10 -25 11 -39 4 -14 -8 -17 -7 -11 3 6 9 -2 10 -34 5 -23 -3 -40 -3 -37 2 6 10 -147 16 -157 6z m1070 -716 c-3 -8 -6 -5 -6 6 -1 11 2 17 5 13 3 -3 4 -12 1 -19z m-1880 -900 c-3 -8 -6 -5 -6 6 -1 11 2 17 5 13 3 -3 4 -12 1 -19z m38 -58 c3 -5 1 -10 -4 -10 -6 0 -11 5 -11 10 0 6 2 10 4 10 3 0 8 -4 11 -10z" class=""></path> <path d="M730 3655 c-8 -3 -86 -6 -172 -7 -95 -2 -161 -7 -168 -14 -17 -17 -20 -75 -5 -104 9 -17 25 -30 42 -33 15 -3 137 -6 271 -6 207 -2 248 1 268 14 13 8 24 22 24 30 0 8 5 15 10 15 7 0 7 6 0 19 -5 11 -7 26 -4 35 12 32 -77 55 -186 46 -8 0 -26 1 -40 4 -14 2 -32 3 -40 1z m260 -43 c0 -5 -7 -9 -15 -9 -8 0 -12 4 -9 9 3 4 9 8 15 8 5 0 9 -4 9 -8z"></path> <path d="M3878 3650 c-159 -4 -210 -8 -220 -19 -10 -10 -10 -12 0 -7 6 4 12 3 12 -2 0 -5 28 -15 63 -22 67 -13 157 -47 169 -64 4 -6 8 -8 8 -3 0 4 14 0 32 -9 51 -26 86 -33 120 -24 20 6 36 6 44 -1 11 -9 83 -5 125 7 22 6 43 58 35 86 -10 39 -23 51 -55 51 -16 0 -29 3 -27 6 5 7 -40 7 -306 1z m367 -37 c0 -6 3 -15 8 -19 4 -4 7 -14 6 -23 0 -10 -4 -8 -9 7 -5 12 -9 25 -9 28 0 4 -5 11 -13 16 -10 8 -10 9 2 5 8 -2 15 -9 15 -14z"></path> <path d="M3285 3510 c-138 -19 -294 -73 -407 -141 -75 -44 -201 -149 -259 -214 -110 -124 -206 -316 -240 -481 l-12 -61 -76 5 c-181 10 -365 -81 -465 -230 -18 -26 -36 -45 -41 -40 -5 4 -5 2 -2 -4 3 -5 -6 -41 -20 -80 -16 -44 -27 -99 -31 -154 l-5 -85 -58 -29 c-170 -84 -292 -305 -274 -495 4 -42 18 -106 32 -144 13 -37 21 -72 17 -79 -4 -7 -3 -8 4 -4 14 8 46 -39 37 -54 -4 -6 -3 -9 2 -8 11 3 129 -114 125 -125 -1 -5 2 -6 8 -2 5 3 22 -2 38 -13 51 -35 137 -63 223 -73 53 -6 615 -9 1475 -6 l1389 3 77 22 c188 52 345 155 457 300 168 218 225 493 156 757 -93 356 -425 622 -785 628 -52 1 -117 0 -144 -3 -38 -3 -50 -1 -52 10 -5 35 -50 151 -86 225 -36 72 -109 178 -170 245 -29 32 -143 129 -183 157 -93 64 -243 128 -369 159 -74 18 -279 26 -361 14z m2039 -2082 c-3 -5 -10 -6 -15 -3 -5 4 -9 1 -9 -6 0 -7 -3 -10 -6 -6 -9 9 3 24 20 24 8 0 13 -4 10 -9z m-3816 -173 c-3 -3 -9 2 -12 12 -6 14 -5 15 5 6 7 -7 10 -15 7 -18z" class=""></path> <path d="M1218 2601 c-39 -39 -75 -71 -79 -71 -7 0 -22 -34 -24 -52 0 -3 -4 -10 -9 -15 -5 -5 -6 -2 -1 6 5 9 3 12 -6 9 -8 -3 -13 -12 -13 -20 1 -10 -5 -14 -17 -11 -17 5 -24 -6 -20 -30 1 -5 -3 -6 -7 -3 -12 7 -46 -30 -38 -42 4 -6 -3 -8 -16 -4 -20 5 -21 3 -10 -10 11 -14 10 -17 -7 -23 -12 -3 -21 -11 -21 -16 0 -5 -7 -9 -15 -9 -19 0 -36 -33 -31 -62 3 -13 5 -25 5 -28 1 -3 6 2 11 10 8 12 10 10 8 -9 -2 -13 3 -26 11 -29 9 -3 11 0 6 8 -4 7 4 4 18 -5 17 -11 34 -14 49 -10 26 8 98 82 98 101 0 7 4 16 10 19 6 4 7 -1 3 -12 -4 -10 53 42 125 116 73 73 129 138 125 144 -3 5 -1 7 4 4 6 -4 13 4 16 18 2 14 0 28 -4 31 -5 3 -9 13 -9 23 0 11 -9 21 -22 24 -13 3 -33 8 -45 12 -18 6 -35 -5 -95 -64z m91 -124 c-2 -1 -13 -9 -24 -17 -19 -14 -19 -14 -6 3 7 9 18 17 24 17 6 0 8 -1 6 -3z"></path> </g> </svg>